<svg width="64" height="43" viewBox="0 0 64 43" fill="none" xmlns="http://www.w3.org/2000/svg">
<mask id="path-1-inside-1_1_21" fill="white">
<path fill-rule="evenodd" clip-rule="evenodd" d="M45.3008 7.83006C42.9602 3.1857 38.1484 0 32.5926 0C26.8884 0 21.9686 3.35811 19.7021 8.20522C18.0156 7.5004 16.1644 7.11111 14.2222 7.11111C6.36751 7.11111 0 13.4786 0 21.3333C0 29.188 6.36751 35.5556 14.2222 35.5556C16.1644 35.5556 18.0156 35.1663 19.7022 34.4614C21.9686 39.3086 26.8884 42.6667 32.5926 42.6667C38.1484 42.6667 42.9602 39.481 45.3008 34.8366C46.7085 35.3031 48.2136 35.5556 49.7778 35.5556C57.6325 35.5556 64 29.188 64 21.3333C64 13.4786 57.6325 7.11111 49.7778 7.11111C48.2136 7.11111 46.7085 7.36361 45.3008 7.83006Z"/>
</mask>
<path d="M45.3008 7.83006L42.6218 9.18023L43.787 11.4921L46.2445 10.6778L45.3008 7.83006ZM19.7021 8.20522L18.5454 10.9732L21.2008 12.0829L22.4197 9.47591L19.7021 8.20522ZM19.7022 34.4614L22.4197 33.1908L21.2008 30.5837L18.5454 31.6934L19.7022 34.4614ZM45.3008 34.8366L46.2445 31.9889L43.787 31.1745L42.6218 33.4864L45.3008 34.8366ZM47.9798 6.4799C45.1491 0.863213 39.3247 -3 32.5926 -3V3C36.9721 3 40.7712 5.50818 42.6218 9.18023L47.9798 6.4799ZM32.5926 -3C25.6806 -3 19.7258 1.07182 16.9846 6.93452L22.4197 9.47591C24.2113 5.64439 28.0962 3 32.5926 3V-3ZM20.8589 5.43721C18.8125 4.58198 16.5685 4.11111 14.2222 4.11111V10.1111C15.7602 10.1111 17.2188 10.4188 18.5454 10.9732L20.8589 5.43721ZM14.2222 4.11111C4.71065 4.11111 -3 11.8218 -3 21.3333H3C3 15.1355 8.02436 10.1111 14.2222 10.1111V4.11111ZM-3 21.3333C-3 30.8449 4.71065 38.5556 14.2222 38.5556V32.5556C8.02436 32.5556 3 27.5312 3 21.3333H-3ZM14.2222 38.5556C16.5685 38.5556 18.8125 38.0847 20.8589 37.2295L18.5454 31.6934C17.2188 32.2478 15.7602 32.5556 14.2222 32.5556V38.5556ZM16.9846 35.7321C19.7258 41.5948 25.6806 45.6667 32.5926 45.6667V39.6667C28.0962 39.6667 24.2113 37.0223 22.4197 33.1908L16.9846 35.7321ZM32.5926 45.6667C39.3247 45.6667 45.1491 41.8035 47.9798 36.1868L42.6218 33.4864C40.7712 37.1585 36.9721 39.6667 32.5926 39.6667V45.6667ZM49.7778 32.5556C48.5383 32.5556 47.3516 32.3557 46.2445 31.9889L44.3572 37.6843C46.0654 38.2504 47.889 38.5556 49.7778 38.5556V32.5556ZM61 21.3333C61 27.5312 55.9756 32.5556 49.7778 32.5556V38.5556C59.2894 38.5556 67 30.8449 67 21.3333H61ZM49.7778 10.1111C55.9756 10.1111 61 15.1355 61 21.3333H67C67 11.8218 59.2894 4.11111 49.7778 4.11111V10.1111ZM46.2445 10.6778C47.3516 10.3109 48.5383 10.1111 49.7778 10.1111V4.11111C47.889 4.11111 46.0654 4.41629 44.3572 4.98234L46.2445 10.6778Z" fill="white" mask="url(#path-1-inside-1_1_21)"/>
</svg>
