<svg width="75" height="77" viewBox="0 0 75 77" fill="none" xmlns="http://www.w3.org/2000/svg">
<path d="M37.6459 56.9144C47.8159 56.9144 56.0604 48.6699 56.0604 38.4999C56.0604 28.3299 47.8159 20.0854 37.6459 20.0854C27.4759 20.0854 19.2314 28.3299 19.2314 38.4999C19.2314 48.6699 27.4759 56.9144 37.6459 56.9144Z" stroke="white" stroke-width="10"/>
<path d="M37.6457 9.07487C39.3232 9.07487 40.6831 7.71496 40.6831 6.03743C40.6831 4.35991 39.3232 3 37.6457 3C35.9682 3 34.6083 4.35991 34.6083 6.03743C34.6083 7.71496 35.9682 9.07487 37.6457 9.07487Z" fill="#FFDB7E" stroke="#FFDB7E" stroke-width="5"/>
<path d="M37.6457 74.0002C39.3232 74.0002 40.6831 72.6403 40.6831 70.9627C40.6831 69.2852 39.3232 67.9253 37.6457 67.9253C35.9682 67.9253 34.6083 69.2852 34.6083 70.9627C34.6083 72.6403 35.9682 74.0002 37.6457 74.0002Z" fill="#FFDB7E" stroke="#FFDB7E" stroke-width="5"/>
<path d="M59.0025 63.7487C60.68 63.7487 62.04 62.3888 62.04 60.7113C62.04 59.0337 60.68 57.6738 59.0025 57.6738C57.325 57.6738 55.9651 59.0337 55.9651 60.7113C55.9651 62.3888 57.325 63.7487 59.0025 63.7487Z" fill="#FFDB7E" stroke="#FFDB7E" stroke-width="5"/>
<path d="M16.2889 63.7487C17.9664 63.7487 19.3263 62.3888 19.3263 60.7113C19.3263 59.0337 17.9664 57.6738 16.2889 57.6738C14.6114 57.6738 13.2515 59.0337 13.2515 60.7113C13.2515 62.3888 14.6114 63.7487 16.2889 63.7487Z" fill="#FFDB7E" stroke="#FFDB7E" stroke-width="5"/>
<path d="M16.2889 19.3263C17.9664 19.3263 19.3263 17.9664 19.3263 16.2889C19.3263 14.6114 17.9664 13.2515 16.2889 13.2515C14.6114 13.2515 13.2515 14.6114 13.2515 16.2889C13.2515 17.9664 14.6114 19.3263 16.2889 19.3263Z" fill="#FFDB7E" stroke="#FFDB7E" stroke-width="5"/>
<path d="M60.7111 19.3263C62.3887 19.3263 63.7486 17.9664 63.7486 16.2889C63.7486 14.6114 62.3887 13.2515 60.7111 13.2515C59.0336 13.2515 57.6737 14.6114 57.6737 16.2889C57.6737 17.9664 59.0336 19.3263 60.7111 19.3263Z" fill="#FFDB7E" stroke="#FFDB7E" stroke-width="5"/>
<path d="M6.03743 41.5373C7.71496 41.5373 9.07487 40.1774 9.07487 38.4998C9.07487 36.8223 7.71496 35.4624 6.03743 35.4624C4.35991 35.4624 3 36.8223 3 38.4998C3 40.1774 4.35991 41.5373 6.03743 41.5373Z" fill="#FFDB7E" stroke="#FFDB7E" stroke-width="5"/>
<path d="M69.2541 41.5373C70.9316 41.5373 72.2915 40.1774 72.2915 38.4998C72.2915 36.8223 70.9316 35.4624 69.2541 35.4624C67.5766 35.4624 66.2167 36.8223 66.2167 38.4998C66.2167 40.1774 67.5766 41.5373 69.2541 41.5373Z" fill="#FFDB7E" stroke="#FFDB7E" stroke-width="5"/>
</svg>
