<svg width="51" height="51" viewBox="0 0 51 51" fill="none" xmlns="http://www.w3.org/2000/svg">
<path fill-rule="evenodd" clip-rule="evenodd" d="M27.0455 1.93182C27.0455 0.864904 26.1805 0 25.1136 0C24.0467 0 23.1818 0.864904 23.1818 1.93182V20.8636L9.0933 6.7751C8.33888 6.02068 7.11572 6.02068 6.3613 6.7751C5.60687 7.52952 5.60687 8.75268 6.3613 9.50711L20.036 23.1818L1.93182 23.1818C0.864904 23.1818 0 24.0467 0 25.1136C0 26.1805 0.864904 27.0455 1.93182 27.0455L21.3257 27.0455L7.90672 40.4644C7.1523 41.2189 7.1523 42.442 7.90672 43.1964C8.66114 43.9509 9.8843 43.9509 10.6387 43.1964L23.1818 30.6534V49.0682C23.1818 50.1351 24.0467 51 25.1136 51C26.1805 51 27.0455 50.1351 27.0455 49.0682V30.1913L39.6917 42.8375C40.4462 43.592 41.6693 43.592 42.4237 42.8375C43.1782 42.0831 43.1782 40.86 42.4237 40.1055L29.3636 27.0455L49.0682 27.0455C50.1351 27.0455 51 26.1805 51 25.1136C51 24.0467 50.1351 23.1818 49.0682 23.1818L30.6534 23.1818L43.9692 9.866C44.7236 9.11158 44.7236 7.88842 43.9692 7.134C43.2147 6.37958 41.9916 6.37958 41.2372 7.134L27.0455 21.3257V1.93182Z" fill="white"/>
</svg>
