<svg width="239" height="120" viewBox="0 0 239 120" fill="none" xmlns="http://www.w3.org/2000/svg">
<path d="M81.6459 87.9144C91.8159 87.9144 100.06 79.6699 100.06 69.4999C100.06 59.3299 91.8159 51.0854 81.6459 51.0854C71.4759 51.0854 63.2314 59.3299 63.2314 69.4999C63.2314 79.6699 71.4759 87.9144 81.6459 87.9144Z" stroke="white" stroke-width="10"/>
<path d="M81.6457 40.0749C83.3232 40.0749 84.6831 38.715 84.6831 37.0374C84.6831 35.3599 83.3232 34 81.6457 34C79.9682 34 78.6083 35.3599 78.6083 37.0374C78.6083 38.715 79.9682 40.0749 81.6457 40.0749Z" fill="#FFDB7E" stroke="#FFDB7E" stroke-width="5"/>
<path d="M81.6457 105C83.3232 105 84.6831 103.64 84.6831 101.963C84.6831 100.285 83.3232 98.9253 81.6457 98.9253C79.9682 98.9253 78.6083 100.285 78.6083 101.963C78.6083 103.64 79.9682 105 81.6457 105Z" fill="#FFDB7E" stroke="#FFDB7E" stroke-width="5"/>
<path d="M103.003 94.7487C104.68 94.7487 106.04 93.3888 106.04 91.7113C106.04 90.0337 104.68 88.6738 103.003 88.6738C101.325 88.6738 99.9651 90.0337 99.9651 91.7113C99.9651 93.3888 101.325 94.7487 103.003 94.7487Z" fill="#FFDB7E" stroke="#FFDB7E" stroke-width="5"/>
<path d="M60.2889 94.7487C61.9664 94.7487 63.3263 93.3888 63.3263 91.7113C63.3263 90.0337 61.9664 88.6738 60.2889 88.6738C58.6114 88.6738 57.2515 90.0337 57.2515 91.7113C57.2515 93.3888 58.6114 94.7487 60.2889 94.7487Z" fill="#FFDB7E" stroke="#FFDB7E" stroke-width="5"/>
<path d="M60.2889 50.3263C61.9664 50.3263 63.3263 48.9664 63.3263 47.2889C63.3263 45.6114 61.9664 44.2515 60.2889 44.2515C58.6114 44.2515 57.2515 45.6114 57.2515 47.2889C57.2515 48.9664 58.6114 50.3263 60.2889 50.3263Z" fill="#FFDB7E" stroke="#FFDB7E" stroke-width="5"/>
<path d="M104.711 50.3263C106.389 50.3263 107.749 48.9664 107.749 47.2889C107.749 45.6114 106.389 44.2515 104.711 44.2515C103.034 44.2515 101.674 45.6114 101.674 47.2889C101.674 48.9664 103.034 50.3263 104.711 50.3263Z" fill="#FFDB7E" stroke="#FFDB7E" stroke-width="5"/>
<path d="M50.0374 72.5373C51.715 72.5373 53.0749 71.1774 53.0749 69.4998C53.0749 67.8223 51.715 66.4624 50.0374 66.4624C48.3599 66.4624 47 67.8223 47 69.4998C47 71.1774 48.3599 72.5373 50.0374 72.5373Z" fill="#FFDB7E" stroke="#FFDB7E" stroke-width="5"/>
<path d="M113.254 72.5373C114.932 72.5373 116.292 71.1774 116.292 69.4998C116.292 67.8223 114.932 66.4624 113.254 66.4624C111.577 66.4624 110.217 67.8223 110.217 69.4998C110.217 71.1774 111.577 72.5373 113.254 72.5373Z" fill="#FFDB7E" stroke="#FFDB7E" stroke-width="5"/>
<path d="M23.712 96.96C19.488 96.96 15.68 96.224 12.288 94.752C8.896 93.28 6.08 91.104 3.84 88.224L10.56 82.464C12.48 84.704 14.56 86.336 16.8 87.36C19.104 88.32 21.696 88.8 24.576 88.8C25.728 88.8 26.784 88.672 27.744 88.416C28.768 88.096 29.632 87.648 30.336 87.072C31.104 86.496 31.68 85.824 32.064 85.056C32.448 84.224 32.64 83.328 32.64 82.368C32.64 80.704 32.032 79.36 30.816 78.336C30.176 77.888 29.152 77.408 27.744 76.896C26.4 76.32 24.64 75.744 22.464 75.168C18.752 74.208 15.712 73.12 13.344 71.904C10.976 70.688 9.152 69.312 7.872 67.776C6.912 66.56 6.208 65.248 5.76 63.84C5.312 62.368 5.088 60.768 5.088 59.04C5.088 56.928 5.536 55.008 6.432 53.28C7.392 51.488 8.672 49.952 10.272 48.672C11.936 47.328 13.856 46.304 16.032 45.6C18.272 44.896 20.64 44.544 23.136 44.544C25.504 44.544 27.84 44.864 30.144 45.504C32.512 46.144 34.688 47.072 36.672 48.288C38.656 49.504 40.32 50.944 41.664 52.608L36 58.848C34.784 57.632 33.44 56.576 31.968 55.68C30.56 54.72 29.12 53.984 27.648 53.472C26.176 52.96 24.832 52.704 23.616 52.704C22.272 52.704 21.056 52.832 19.968 53.088C18.88 53.344 17.952 53.728 17.184 54.24C16.48 54.752 15.936 55.392 15.552 56.16C15.168 56.928 14.976 57.792 14.976 58.752C15.04 59.584 15.232 60.384 15.552 61.152C15.936 61.856 16.448 62.464 17.088 62.976C17.792 63.488 18.848 64.032 20.256 64.608C21.664 65.184 23.456 65.728 25.632 66.24C28.832 67.072 31.456 68 33.504 69.024C35.616 69.984 37.28 71.104 38.496 72.384C39.776 73.6 40.672 75.008 41.184 76.608C41.696 78.208 41.952 80 41.952 81.984C41.952 84.864 41.12 87.456 39.456 89.76C37.856 92 35.68 93.76 32.928 95.04C30.176 96.32 27.104 96.96 23.712 96.96Z" fill="white"/>
<path d="M123.104 96V24.96H132.992V96H123.104ZM165.46 96.96C161.3 96.96 157.492 95.808 154.036 93.504C150.644 91.2 147.924 88.064 145.876 84.096C143.828 80.128 142.804 75.648 142.804 70.656C142.804 65.6 143.828 61.12 145.876 57.216C147.988 53.248 150.804 50.144 154.324 47.904C157.908 45.664 161.908 44.544 166.324 44.544C168.948 44.544 171.348 44.928 173.524 45.696C175.7 46.464 177.588 47.552 179.188 48.96C180.852 50.304 182.196 51.872 183.22 53.664C184.308 55.456 184.98 57.376 185.236 59.424L183.028 58.656V45.6H193.012V96H183.028V84L185.332 83.328C184.948 85.056 184.148 86.752 182.932 88.416C181.78 90.016 180.276 91.456 178.42 92.736C176.628 94.016 174.612 95.04 172.372 95.808C170.196 96.576 167.892 96.96 165.46 96.96ZM168.052 87.84C171.06 87.84 173.716 87.104 176.02 85.632C178.324 84.16 180.116 82.144 181.396 79.584C182.74 76.96 183.412 73.984 183.412 70.656C183.412 67.392 182.74 64.48 181.396 61.92C180.116 59.36 178.324 57.344 176.02 55.872C173.716 54.4 171.06 53.664 168.052 53.664C165.108 53.664 162.484 54.4 160.18 55.872C157.94 57.344 156.148 59.36 154.804 61.92C153.524 64.48 152.884 67.392 152.884 70.656C152.884 73.984 153.524 76.96 154.804 79.584C156.148 82.144 157.94 84.16 160.18 85.632C162.484 87.104 165.108 87.84 168.052 87.84ZM206.818 96V45.6H216.802V61.44L215.842 57.6C216.546 55.168 217.73 52.96 219.394 50.976C221.122 48.992 223.074 47.424 225.25 46.272C227.49 45.12 229.794 44.544 232.162 44.544C233.25 44.544 234.274 44.64 235.234 44.832C236.258 45.024 237.058 45.248 237.634 45.504L235.042 56.256C234.274 55.936 233.41 55.68 232.45 55.488C231.554 55.232 230.658 55.104 229.762 55.104C228.034 55.104 226.37 55.456 224.77 56.16C223.234 56.8 221.858 57.728 220.642 58.944C219.49 60.096 218.562 61.472 217.858 63.072C217.154 64.608 216.802 66.304 216.802 68.16V96H206.818Z" fill="white"/>
</svg>
