<svg width="108" height="72" viewBox="0 0 108 72" fill="none" xmlns="http://www.w3.org/2000/svg">
<mask id="path-1-inside-1_1_21" fill="white">
<path fill-rule="evenodd" clip-rule="evenodd" d="M76.4452 13.2132C72.4953 5.37586 64.3754 0 55 0C45.3742 0 37.0719 5.66681 33.2474 13.8463C30.4013 12.6569 27.2774 12 24 12C10.7452 12 0 22.7452 0 36C0 49.2548 10.7452 60 24 60C27.2774 60 30.4013 59.3431 33.2474 58.1537C37.0719 66.3332 45.3742 72 55 72C64.3754 72 72.4953 66.6241 76.4452 58.7868C78.8206 59.5739 81.3605 60 84 60C97.2548 60 108 49.2548 108 36C108 22.7452 97.2548 12 84 12C81.3605 12 78.8206 12.4261 76.4452 13.2132Z"/>
</mask>
<path d="M76.4452 13.2132L73.7662 14.5634L74.9313 16.8753L77.3888 16.061L76.4452 13.2132ZM33.2474 13.8463L32.0906 16.6143L34.746 17.724L35.965 15.117L33.2474 13.8463ZM33.2474 58.1537L35.965 56.883L34.746 54.276L32.0906 55.3857L33.2474 58.1537ZM76.4452 58.7868L77.3888 55.939L74.9313 55.1247L73.7662 57.4366L76.4452 58.7868ZM79.1242 11.8631C74.6843 3.05338 65.5517 -3 55 -3V3C63.1992 3 70.3063 7.69834 73.7662 14.5634L79.1242 11.8631ZM55 -3C44.1664 -3 34.8292 3.38052 30.5298 12.5756L35.965 15.117C39.3147 7.95309 46.582 3 55 3V-3ZM34.4041 11.0783C31.1982 9.73851 27.6815 9 24 9V15C26.8732 15 29.6045 15.5754 32.0906 16.6143L34.4041 11.0783ZM24 9C9.08831 9 -3 21.0883 -3 36H3C3 24.402 12.402 15 24 15V9ZM-3 36C-3 50.9117 9.08831 63 24 63V57C12.402 57 3 47.598 3 36H-3ZM24 63C27.6815 63 31.1982 62.2615 34.4041 60.9217L32.0906 55.3857C29.6045 56.4246 26.8732 57 24 57V63ZM30.5298 59.4244C34.8292 68.6195 44.1664 75 55 75V69C46.582 69 39.3147 64.0469 35.965 56.883L30.5298 59.4244ZM55 75C65.5517 75 74.6843 68.9466 79.1242 60.1369L73.7662 57.4366C70.3063 64.3017 63.1992 69 55 69V75ZM84 57C81.6852 57 79.4637 56.6266 77.3888 55.939L75.5015 61.6345C78.1775 62.5212 81.0358 63 84 63V57ZM105 36C105 47.598 95.598 57 84 57V63C98.9117 63 111 50.9117 111 36H105ZM84 15C95.598 15 105 24.402 105 36H111C111 21.0883 98.9117 9 84 9V15ZM77.3888 16.061C79.4637 15.3734 81.6852 15 84 15V9C81.0358 9 78.1775 9.47877 75.5015 10.3655L77.3888 16.061Z" fill="white" mask="url(#path-1-inside-1_1_21)"/>
</svg>
