<svg width="26" height="52" viewBox="0 0 36 62" fill="none" xmlns="http://www.w3.org/2000/svg">
<mask id="path-1-inside-1_1_41" fill="white">
<path fill-rule="evenodd" clip-rule="evenodd" d="M33.3725 34.631L17.5 0L2.49331 34.8542C0.909114 37.5345 0 40.6611 0 44C0 53.9411 8.05887 62 18 62C27.9411 62 36 53.9411 36 44C36 40.5679 35.0395 37.3602 33.3725 34.631Z"/>
</mask>
<path d="M17.5 0L20.2272 -1.24996L17.4143 -7.38714L14.7445 -1.18638L17.5 0ZM33.3725 34.631L30.6453 35.8809L30.7195 36.0428L30.8123 36.1947L33.3725 34.631ZM2.49331 34.8542L5.07591 36.3807L5.17317 36.2162L5.24877 36.0406L2.49331 34.8542ZM14.7728 1.24996L30.6453 35.8809L36.0997 33.381L20.2272 -1.24996L14.7728 1.24996ZM5.24877 36.0406L20.2555 1.18638L14.7445 -1.18638L-0.262138 33.6679L5.24877 36.0406ZM3 44C3 41.2127 3.75745 38.6114 5.07591 36.3807L-0.089286 33.3277C-1.93922 36.4576 -3 40.1095 -3 44H3ZM18 59C9.71573 59 3 52.2843 3 44H-3C-3 55.598 6.40202 65 18 65V59ZM33 44C33 52.2843 26.2843 59 18 59V65C29.598 65 39 55.598 39 44H33ZM30.8123 36.1947C32.1998 38.4664 33 41.1352 33 44H39C39 40.0007 37.8791 36.2539 35.9328 33.0672L30.8123 36.1947Z" fill="white" mask="url(#path-1-inside-1_1_41)"/>
</svg>
