<svg width="28" height="49" viewBox="0 0 28 49" fill="none" xmlns="http://www.w3.org/2000/svg">
<mask id="path-1-inside-1_1_41" fill="white">
<path fill-rule="evenodd" clip-rule="evenodd" d="M25.9564 26.9352L13.6111 0L1.93925 27.1088C0.707089 29.1935 0 31.6253 0 34.2222C0 41.9542 6.26801 48.2222 14 48.2222C21.732 48.2222 28 41.9542 28 34.2222C28 31.5528 27.2529 29.0579 25.9564 26.9352Z"/>
</mask>
<path d="M13.6111 0L16.3383 -1.24996L13.5254 -7.38714L10.8557 -1.18638L13.6111 0ZM25.9564 26.9352L23.2292 28.1852L23.3034 28.347L23.3962 28.4989L25.9564 26.9352ZM1.93925 27.1088L4.52185 28.6353L4.61911 28.4708L4.6947 28.2952L1.93925 27.1088ZM10.8839 1.24996L23.2292 28.1852L28.6836 25.6852L16.3383 -1.24996L10.8839 1.24996ZM4.6947 28.2952L16.3666 1.18638L10.8557 -1.18638L-0.816205 25.9225L4.6947 28.2952ZM3 34.2222C3 32.1769 3.55543 30.2704 4.52185 28.6353L-0.643353 25.5824C-2.14125 28.1166 -3 31.0737 -3 34.2222H3ZM14 45.2222C7.92487 45.2222 3 40.2974 3 34.2222H-3C-3 43.6111 4.61116 51.2222 14 51.2222V45.2222ZM25 34.2222C25 40.2974 20.0751 45.2222 14 45.2222V51.2222C23.3888 51.2222 31 43.6111 31 34.2222H25ZM23.3962 28.4989C24.4133 30.1642 25 32.1201 25 34.2222H31C31 30.9856 30.0925 27.9517 28.5166 25.3715L23.3962 28.4989Z" fill="white" mask="url(#path-1-inside-1_1_41)"/>
</svg>
