<svg width="66" height="66" viewBox="0 0 66 66" fill="none" xmlns="http://www.w3.org/2000/svg">
<path fill-rule="evenodd" clip-rule="evenodd" d="M35 2.5C35 1.11929 33.8807 0 32.5 0C31.1193 0 30 1.11929 30 2.5V27L11.7678 8.76778C10.7915 7.79146 9.20858 7.79147 8.23227 8.76778C7.25595 9.74409 7.25595 11.327 8.23227 12.3033L25.929 30L2.5 30C1.11929 30 0 31.1193 0 32.5C0 33.8807 1.11929 35 2.5 35H27.598L10.2322 52.3657C9.25592 53.3421 9.25592 54.925 10.2322 55.9013C11.2085 56.8776 12.7915 56.8776 13.7678 55.9013L30 39.669V63.5C30 64.8807 31.1193 66 32.5 66C33.8807 66 35 64.8807 35 63.5V39.071L51.3658 55.4368C52.3421 56.4131 53.925 56.4131 54.9013 55.4368C55.8776 54.4605 55.8776 52.8776 54.9013 51.9013L38 35H63.5C64.8807 35 66 33.8807 66 32.5C66 31.1193 64.8807 30 63.5 30L39.669 30L56.9013 12.7678C57.8776 11.7915 57.8776 10.2085 56.9013 9.23223C55.925 8.25592 54.3421 8.25592 53.3657 9.23223L35 27.598V2.5Z" fill="white"/>
</svg>
